# xmcd
#
# Track frame offsets: 
#        225
#        10950
#        28293
#        49520
#        69244
#        91910
#        107777
#        126336
#        153142
#        172065
#        189365
#        200401
#
# Disc length: 2862 seconds
#
# Revision: 1
# Processed by: cddbd v1.5.2PL0 Copyright (c) Steve Scherf et al.
# Submitted via: ExactAudioCopyFreeDBPlugin 1.0
#
DISCID=9b0b2b0c
DTITLE=KRESTAN Robert - Master serie
DYEAR=1998
DGENRE=Blues
TTITLE0=Panenka
TTITLE1=Ichisah!
TTITLE2=Odpocin si, lasko
TTITLE3=Vila
TTITLE4=Krvava Marie
TTITLE5=Praha bolestivosti
TTITLE6=Tancim
TTITLE7=Nez zazvoni hrana
TTITLE8=Ukolebavka pro mne
TTITLE9=Battledress
TTITLE10=Sest bilych koni
TTITLE11=Mam don´t allow
EXTD=
EXTT0=
EXTT1=
EXTT2=
EXTT3=
EXTT4=
EXTT5=
EXTT6=
EXTT7=
EXTT8=
EXTT9=
EXTT10=
EXTT11=
PLAYORDER=
